<svg width="1014" height="484" xmlns="http://www.w3.org/2000/svg" xmlns:xlink="http://www.w3.org/1999/xlink" overflow="hidden"><defs><clipPath id="clip0"><path d="M91 179 1105 179 1105 663 91 663Z" fill-rule="evenodd" clip-rule="evenodd"/></clipPath></defs><g clip-path="url(#clip0)" transform="translate(-91 -179)"><path d="M338.5 199.5 338.5 494.04" stroke="#A7A7A7" stroke-width="53" stroke-miterlimit="8" fill="none" fill-rule="evenodd"/><path d="M0 0 469.491 0.000104987" stroke="#A7A7A7" stroke-width="53" stroke-miterlimit="8" fill="none" fill-rule="evenodd" transform="matrix(-1 -8.74228e-08 -8.74228e-08 1 588.991 519.5)"/><rect x="381.5" y="448.5" width="13" height="22" stroke="#221714" stroke-miterlimit="8" fill="none"/><path d="M379.5 435.5C379.5 430.53 383.306 426.5 388 426.5 392.694 426.5 396.5 430.53 396.5 435.5 396.5 440.471 392.694 444.5 388 444.5 383.306 444.5 379.5 440.471 379.5 435.5Z" stroke="#221714" stroke-miterlimit="8" fill="none" fill-rule="evenodd"/><path d="M388.5 444.5 388.5 448.914" stroke="#221714" stroke-miterlimit="8" fill="none" fill-rule="evenodd"/><path d="M388.5 470.5 388.5 477.562" stroke="#221714" stroke-miterlimit="8" fill="none" fill-rule="evenodd"/><path d="M378 487 380.5 477 394.5 477 397 487Z" fill="#221714" fill-rule="evenodd"/><rect x="240.5" y="569.5" width="14" height="23" stroke="#221714" stroke-miterlimit="8" fill="none"/><path d="M238.5 557C238.5 552.306 242.529 548.5 247.5 548.5 252.471 548.5 256.5 552.306 256.5 557 256.5 561.694 252.471 565.5 247.5 565.5 242.529 565.5 238.5 561.694 238.5 557Z" stroke="#221714" stroke-miterlimit="8" fill="none" fill-rule="evenodd"/><path d="M247.5 565.5 247.5 569.914" stroke="#221714" stroke-miterlimit="8" fill="none" fill-rule="evenodd"/><path d="M247.5 592.5 247.5 599.562" stroke="#221714" stroke-miterlimit="8" fill="none" fill-rule="evenodd"/><path d="M238 609 240.5 599 254.5 599 257 609Z" fill="#221714" fill-rule="evenodd"/><rect x="282.5" y="424.5" width="13" height="23" stroke="#221714" stroke-miterlimit="8" fill="none"/><path d="M280.5 412C280.5 407.306 284.306 403.5 289 403.5 293.694 403.5 297.5 407.306 297.5 412 297.5 416.694 293.694 420.5 289 420.5 284.306 420.5 280.5 416.694 280.5 412Z" stroke="#221714" stroke-miterlimit="8" fill="none" fill-rule="evenodd"/><path d="M288.5 420.5 288.5 424.914" stroke="#221714" stroke-miterlimit="8" fill="none" fill-rule="evenodd"/><path d="M288.5 447.5 288.5 454.562" stroke="#221714" stroke-miterlimit="8" fill="none" fill-rule="evenodd"/><path d="M279 464 281.5 454 295.5 454 298 464Z" fill="#221714" fill-rule="evenodd"/><path d="M389.5 519.5 389.5 544.7" stroke="#F2F2F2" stroke-width="7" stroke-miterlimit="8" fill="none" fill-rule="evenodd"/><path d="M388.5 519.5 588.275 519.5" stroke="#F2F2F2" stroke-miterlimit="8" fill="none" fill-rule="evenodd"/><path d="M119.5 520.5 288.709 520.5" stroke="#F2F2F2" stroke-miterlimit="8" fill="none" fill-rule="evenodd"/><path d="M288.5 496.5 288.5 520.525" stroke="#F2F2F2" stroke-width="7" stroke-miterlimit="8" fill="none" fill-rule="evenodd"/><path d="M338.5 471.5 363.744 471.5" stroke="#F2F2F2" stroke-width="7" stroke-miterlimit="8" fill="none" fill-rule="evenodd"/><path d="M339.5 472.119 339.5 199.5" stroke="#F2F2F2" stroke-miterlimit="8" fill="none" fill-rule="evenodd"/><rect x="381.5" y="233.5" width="13" height="22" stroke="#221714" stroke-miterlimit="8" fill="none"/><path d="M379.5 221C379.5 216.306 383.306 212.5 388 212.5 392.694 212.5 396.5 216.306 396.5 221 396.5 225.694 392.694 229.5 388 229.5 383.306 229.5 379.5 225.694 379.5 221Z" stroke="#221714" stroke-miterlimit="8" fill="none" fill-rule="evenodd"/><path d="M388.5 229.5 388.5 233.914" stroke="#221714" stroke-miterlimit="8" fill="none" fill-rule="evenodd"/><path d="M388.5 255.5 388.5 262.562" stroke="#221714" stroke-miterlimit="8" fill="none" fill-rule="evenodd"/><path d="M378 272 380.5 262 394.5 262 397 272Z" fill="#221714" fill-rule="evenodd"/><rect x="282.5" y="202.5" width="14" height="22" stroke="#221714" stroke-miterlimit="8" fill="none"/><path d="M281.5 189.5C281.5 184.529 285.306 180.5 290 180.5 294.694 180.5 298.5 184.529 298.5 189.5 298.5 194.471 294.694 198.5 290 198.5 285.306 198.5 281.5 194.471 281.5 189.5Z" stroke="#221714" stroke-miterlimit="8" fill="none" fill-rule="evenodd"/><path d="M289.5 198.5 289.5 202.914" stroke="#221714" stroke-miterlimit="8" fill="none" fill-rule="evenodd"/><path d="M289.5 224.5 289.5 231.562" stroke="#221714" stroke-miterlimit="8" fill="none" fill-rule="evenodd"/><path d="M280 241 282.5 231 296.5 231 299 241Z" fill="#221714" fill-rule="evenodd"/><text fill="#221714" font-family="Arial,Arial_MSFontService,sans-serif" font-weight="400" font-size="19" transform="translate(1009.42 346)">Busstop<tspan x="0" y="29">Busroute</tspan></text><path d="M968 340C968 333.373 973.373 328 980 328 986.627 328 992 333.373 992 340 992 346.627 986.627 352 980 352 973.373 352 968 346.627 968 340Z" fill="#E4004E" fill-rule="evenodd"/><path d="M0.990025-0.499996 28.0924-0.499895 28.0924 0.500105 0.990021 0.500004ZM8.73804 5.09859-0.0023173 2.21014e-09 8.73808-5.09852C8.97661-5.23766 9.28277-5.15709 9.42191-4.91857 9.56105-4.68004 9.48048-4.37388 9.24195-4.23474L1.24193 0.431894 1.24194-0.431885 9.24192 4.23481C9.48044 4.37395 9.56101 4.68011 9.42187 4.91864 9.28273 5.15716 8.97657 5.23773 8.73804 5.09859Z" fill="#E4004E" transform="matrix(1 0 0 -1 964.5 372.5)"/><rect x="951.5" y="314.5" width="153" height="82" stroke="#E4004E" stroke-miterlimit="8" fill="none"/><path d="M837 510C837 502.268 843.268 496 851 496 858.732 496 865 502.268 865 510 865 517.732 858.732 524 851 524 843.268 524 837 517.732 837 510Z" fill="#E4004E" fill-rule="evenodd"/><path d="M837 290.5C837 282.492 843.268 276 851 276 858.732 276 865 282.492 865 290.5 865 298.508 858.732 305 851 305 843.268 305 837 298.508 837 290.5Z" fill="#E4004E" fill-rule="evenodd"/><path d="M842 302.49 842 500.395 841 500.395 841 302.49ZM836.401 310.238 841.5 301.498 846.599 310.238C846.738 310.477 846.657 310.783 846.419 310.922 846.18 311.061 845.874 310.981 845.735 310.742L841.068 302.742 841.932 302.742 837.265 310.742C837.126 310.981 836.82 311.061 836.581 310.922 836.343 310.783 836.262 310.477 836.401 310.238Z" fill="#E4004E"/><path d="M0.500001 0.989698 0.500105 190.552-0.499895 190.552-0.499999 0.989698ZM-5.09855 8.73807-2.34483e-09-0.0023173 5.09856 8.73806C5.2377 8.97659 5.15713 9.28275 4.91861 9.42189 4.68008 9.56103 4.37392 9.48046 4.23478 9.24193L-0.431889 1.24194 0.43189 1.24194-4.23477 9.24194C-4.37391 9.48046-4.68007 9.56103-4.9186 9.42189-5.15712 9.28275-5.23769 8.97659-5.09855 8.73807Z" fill="#E4004E" transform="matrix(1 0 0 -1 851.5 496.052)"/><path d="M733.49 520 841.553 520 841.553 521 733.49 521ZM741.238 525.599 732.498 520.5 741.238 515.401C741.477 515.262 741.783 515.343 741.922 515.581 742.061 515.82 741.981 516.126 741.742 516.265L733.742 520.932 733.742 520.068 741.742 524.735C741.981 524.874 742.061 525.18 741.922 525.419 741.783 525.657 741.477 525.738 741.238 525.599Z" fill="#E4004E"/><path d="M0.990066-0.499999 103.882-0.499895 103.882 0.500105 0.990065 0.500001ZM8.73806 5.09857-0.0023173-2.65873e-08 8.73807-5.09855C8.9766-5.23769 9.28275-5.15712 9.42189-4.91859 9.56103-4.68007 9.48047-4.37391 9.24194-4.23477L1.24194 0.431891 1.24194-0.431888 9.24193 4.23479C9.48046 4.37393 9.56102 4.68009 9.42188 4.91861 9.28274 5.15714 8.97658 5.23771 8.73806 5.09857Z" fill="#E4004E" transform="matrix(-1 -8.74228e-08 -8.74228e-08 1 837.382 510.5)"/><path d="M862.49 520 982.306 520 982.306 521 862.49 521ZM870.238 525.599 861.498 520.5 870.238 515.401C870.477 515.262 870.783 515.343 870.922 515.581 871.061 515.82 870.981 516.126 870.742 516.265L862.742 520.932 862.742 520.068 870.742 524.735C870.981 524.874 871.061 525.18 870.922 525.419 870.783 525.657 870.477 525.738 870.238 525.599Z" fill="#E4004E"/><path d="M0.989705-0.499999 110.634-0.499895 110.634 0.500105 0.989704 0.500001ZM8.73806 5.09857-0.0023174 1.50638e-08 8.73807-5.09855C8.97659-5.23769 9.28275-5.15712 9.42189-4.91859 9.56103-4.68007 9.48046-4.37391 9.24194-4.23477L1.24194 0.431891 1.24194-0.431888 9.24193 4.23479C9.48046 4.37393 9.56102 4.68009 9.42188 4.91861 9.28274 5.15714 8.97659 5.2377 8.73806 5.09857Z" fill="#E4004E" transform="matrix(-1 -8.74228e-08 -8.74228e-08 1 976.134 510.5)"/><rect x="118.5" y="569.5" width="14" height="23" stroke="#221714" stroke-miterlimit="8" fill="none"/><path d="M117.5 557C117.5 552.306 121.306 548.5 126 548.5 130.694 548.5 134.5 552.306 134.5 557 134.5 561.694 130.694 565.5 126 565.5 121.306 565.5 117.5 561.694 117.5 557Z" stroke="#221714" stroke-miterlimit="8" fill="none" fill-rule="evenodd"/><path d="M125.5 565.5 125.5 569.914" stroke="#221714" stroke-miterlimit="8" fill="none" fill-rule="evenodd"/><path d="M125.5 592.5 125.5 599.562" stroke="#221714" stroke-miterlimit="8" fill="none" fill-rule="evenodd"/><path d="M116 609 118.5 599 132.5 599 135 609Z" fill="#221714" fill-rule="evenodd"/><rect x="152.5" y="450.5" width="13" height="23" stroke="#221714" stroke-miterlimit="8" fill="none"/><path d="M150.5 438C150.5 433.306 154.306 429.5 159 429.5 163.694 429.5 167.5 433.306 167.5 438 167.5 442.694 163.694 446.5 159 446.5 154.306 446.5 150.5 442.694 150.5 438Z" stroke="#221714" stroke-miterlimit="8" fill="none" fill-rule="evenodd"/><path d="M158.5 446.5 158.5 450.914" stroke="#221714" stroke-miterlimit="8" fill="none" fill-rule="evenodd"/><path d="M158.5 473.5 158.5 480.562" stroke="#221714" stroke-miterlimit="8" fill="none" fill-rule="evenodd"/><path d="M149 490 151.5 480 165.5 480 168 490Z" fill="#221714" fill-rule="evenodd"/><rect x="551.5" y="450.5" width="13" height="23" stroke="#221714" stroke-miterlimit="8" fill="none"/><path d="M549.5 438C549.5 433.306 553.306 429.5 558 429.5 562.694 429.5 566.5 433.306 566.5 438 566.5 442.694 562.694 446.5 558 446.5 553.306 446.5 549.5 442.694 549.5 438Z" stroke="#221714" stroke-miterlimit="8" fill="none" fill-rule="evenodd"/><path d="M557.5 446.5 557.5 450.914" stroke="#221714" stroke-miterlimit="8" fill="none" fill-rule="evenodd"/><path d="M557.5 473.5 557.5 480.562" stroke="#221714" stroke-miterlimit="8" fill="none" fill-rule="evenodd"/><path d="M548 490 550.5 480 564.5 480 567 490Z" fill="#221714" fill-rule="evenodd"/><rect x="534.5" y="572.5" width="14" height="22" stroke="#221714" stroke-miterlimit="8" fill="none"/><path d="M532.5 559.5C532.5 554.529 536.529 550.5 541.5 550.5 546.471 550.5 550.5 554.529 550.5 559.5 550.5 564.471 546.471 568.5 541.5 568.5 536.529 568.5 532.5 564.471 532.5 559.5Z" stroke="#221714" stroke-miterlimit="8" fill="none" fill-rule="evenodd"/><path d="M541.5 568.5 541.5 572.914" stroke="#221714" stroke-miterlimit="8" fill="none" fill-rule="evenodd"/><path d="M541.5 594.5 541.5 601.562" stroke="#221714" stroke-miterlimit="8" fill="none" fill-rule="evenodd"/><path d="M532 611 534.5 601 548.5 601 551 611Z" fill="#221714" fill-rule="evenodd"/><path d="M706 514C706 506.268 712.492 500 720.5 500 728.508 500 735 506.268 735 514 735 521.732 728.508 528 720.5 528 712.492 528 706 521.732 706 514Z" fill="#E4004E" fill-rule="evenodd"/><path d="M978 514C978 506.268 984.492 500 992.5 500 1000.51 500 1007 506.268 1007 514 1007 521.732 1000.51 528 992.5 528 984.492 528 978 521.732 978 514Z" fill="#E4004E" fill-rule="evenodd"/><path d="M841 216.49 841 281.031 840 281.031 840 216.49ZM835.401 224.238 840.5 215.498 845.599 224.238C845.738 224.477 845.657 224.783 845.419 224.922 845.18 225.061 844.874 224.98 844.735 224.742L840.068 216.742 840.932 216.742 836.265 224.742C836.126 224.981 835.82 225.061 835.581 224.922 835.343 224.783 835.262 224.477 835.401 224.238Z" fill="#E4004E"/><path d="M0.500002 0.989717 0.500105 61.3597-0.499895 61.3597-0.499998 0.989719ZM-5.09854 8.73807-5.221e-08-0.0023173 5.09857 8.73806C5.23771 8.97658 5.15714 9.28274 4.91862 9.42188 4.68009 9.56102 4.37393 9.48045 4.23479 9.24193L-0.431887 1.24194 0.431892 1.24193-4.23476 9.24194C-4.3739 9.48047-4.68006 9.56104-4.91859 9.4219-5.15711 9.28276-5.23768 8.9766-5.09854 8.73807Z" fill="#E4004E" transform="matrix(1 0 0 -1 850.5 276.86)"/><path d="M660.49 520 711.01 520 711.01 521 660.49 521ZM668.238 525.599 659.498 520.5 668.238 515.402C668.477 515.262 668.783 515.343 668.922 515.581 669.061 515.82 668.981 516.126 668.742 516.265L660.742 520.932 660.742 520.068 668.742 524.735C668.981 524.874 669.061 525.18 668.922 525.419 668.783 525.657 668.477 525.738 668.238 525.599Z" fill="#E4004E"/><path d="M0.989978-0.499998 47.3388-0.499895 47.3388 0.500105 0.989976 0.500002ZM8.73805 5.09858-0.0023173-2.98256e-08 8.73808-5.09854C8.9766-5.23768 9.28276-5.15711 9.4219-4.91858 9.56104-4.68006 9.48047-4.3739 9.24195-4.23476L1.24193 0.431892 1.24194-0.431887 9.24193 4.2348C9.48045 4.37394 9.56102 4.6801 9.42188 4.91862 9.28274 5.15715 8.97658 5.23772 8.73805 5.09858Z" fill="#E4004E" transform="matrix(-1 -8.74228e-08 -8.74228e-08 1 706.839 510.5)"/><path d="M1006.49 520 1057.01 520 1057.01 521 1006.49 521ZM1014.24 525.599 1005.5 520.5 1014.24 515.402C1014.48 515.262 1014.78 515.343 1014.92 515.581 1015.06 515.82 1014.98 516.126 1014.74 516.265L1006.74 520.932 1006.74 520.068 1014.74 524.735C1014.98 524.874 1015.06 525.18 1014.92 525.419 1014.78 525.657 1014.48 525.738 1014.24 525.599Z" fill="#E4004E"/><path d="M0.989978-0.499998 47.3388-0.499895 47.3388 0.500105 0.989976 0.500002ZM8.73805 5.09858-0.0023173-2.98256e-08 8.73808-5.09854C8.9766-5.23768 9.28276-5.15711 9.4219-4.91858 9.56104-4.68006 9.48047-4.3739 9.24195-4.23476L1.24193 0.431892 1.24194-0.431887 9.24193 4.2348C9.48045 4.37394 9.56102 4.6801 9.42188 4.91862 9.28274 5.15715 8.97658 5.23772 8.73805 5.09858Z" fill="#E4004E" transform="matrix(-1 -8.74228e-08 -8.74228e-08 1 1054.84 510.5)"/><text fill="#221714" font-family="Arial,Arial_MSFontService,sans-serif" font-weight="400" font-size="19" transform="translate(749.94 647)">TraISARE<tspan x="88.4733" y="0">bu</tspan><tspan x="109.14" y="0">s</tspan><tspan x="123.64" y="0">network</tspan><tspan x="-510.403" y="0">Existent bu</tspan><tspan x="-418.237" y="0">s</tspan><tspan x="-403.737" y="0">network</tspan></text></g></svg>