<svg width="832" height="474" xmlns="http://www.w3.org/2000/svg" xmlns:xlink="http://www.w3.org/1999/xlink" overflow="hidden"><defs><clipPath id="clip0"><path d="M185 190 1017 190 1017 664 185 664Z" fill-rule="evenodd" clip-rule="evenodd"/></clipPath></defs><g clip-path="url(#clip0)" transform="translate(-185 -190)"><text fill="#221714" font-family="Arial,Arial_MSFontService,sans-serif" font-weight="400" font-size="19" transform="translate(920.85 489)">Station<tspan x="0" y="29">Railway</tspan></text><path d="M880 482.5C880 475.596 885.373 470 892 470 898.627 470 904 475.596 904 482.5 904 489.404 898.627 495 892 495 885.373 495 880 489.404 880 482.5Z" fill="#E4004E" fill-rule="evenodd"/><path d="M0.990025-0.499996 28.0924-0.499895 28.0924 0.500105 0.990021 0.500004ZM8.73804 5.09859-0.0023173 2.21014e-09 8.73808-5.09852C8.97661-5.23766 9.28277-5.15709 9.42191-4.91857 9.56105-4.68004 9.48048-4.37388 9.24195-4.23474L1.24193 0.431894 1.24194-0.431885 9.24192 4.23481C9.48044 4.37395 9.56101 4.68011 9.42187 4.91864 9.28273 5.15716 8.97657 5.23773 8.73804 5.09859Z" fill="#E4004E" transform="matrix(1 0 0 -1 876.5 515.5)"/><rect x="863.5" y="457.5" width="152" height="82" stroke="#E4004E" stroke-miterlimit="8" fill="none"/><path d="M0 0C115.44 0 230.879 93.8392 230.879 187.678 230.879 281.517 310.321 375.357 389.762 375.357" stroke="#221714" stroke-miterlimit="8" fill="none" fill-rule="evenodd" transform="matrix(1 0 0 -1 186.5 587.857)"/><path d="M0 0C118.94 0 237.88 93.8392 237.88 187.678 237.88 281.517 313.821 375.357 389.762 375.357" stroke="#221714" stroke-miterlimit="8" fill="none" fill-rule="evenodd" transform="matrix(1 0 0 -1 185.5 595.857)"/><path d="M0 0C116.94 0 233.881 93.8392 233.881 187.678 233.881 281.517 311.821 375.357 389.762 375.357" stroke="#221714" stroke-width="8" stroke-miterlimit="8" stroke-dasharray="32 24" fill="none" fill-rule="evenodd" transform="matrix(1 0 0 -1 187 591.357)"/><path d="M385.5 192.5 425.134 381.749" stroke="#221714" stroke-miterlimit="8" fill="none" fill-rule="evenodd"/><path d="M378.5 196.5 418.134 385.749" stroke="#221714" stroke-miterlimit="8" fill="none" fill-rule="evenodd"/><path d="M411.308 428.331 415.18 380.408 429.376 381.555 425.504 429.478Z" stroke="#221714" stroke-width="1.33333" stroke-miterlimit="8" fill="#FFFFFF" fill-rule="evenodd"/><path d="M382 192 418.081 364.284" stroke="#221714" stroke-width="8" stroke-miterlimit="8" stroke-dasharray="32 24" fill="none" fill-rule="evenodd"/><path d="M201.309 583.813 248.727 575.866 251.081 589.912 203.663 597.859Z" stroke="#221714" stroke-width="1.33333" stroke-miterlimit="8" fill="#FFFFFF" fill-rule="evenodd"/><path d="M502.116 231.3 546.371 212.509 551.937 225.618 507.682 244.409Z" stroke="#221714" stroke-width="1.33333" stroke-miterlimit="8" fill="#FFFFFF" fill-rule="evenodd"/><path d="M386.749 250.703 376.67 203.692 390.595 200.706 400.675 247.717Z" stroke="#221714" stroke-width="1.33333" stroke-miterlimit="8" fill="#FFFFFF" fill-rule="evenodd"/><path d="M915 235.5C915 227.492 921.268 221 929 221 936.732 221 943 227.492 943 235.5 943 243.508 936.732 250 929 250 921.268 250 915 243.508 915 235.5Z" fill="#E4004E" fill-rule="evenodd"/><path d="M731 573.5C731 565.492 737.492 559 745.5 559 753.508 559 760 565.492 760 573.5 760 581.508 753.508 588 745.5 588 737.492 588 731 581.508 731 573.5Z" fill="#E4004E" fill-rule="evenodd"/><path d="M762 267C762 259.268 768.268 253 776 253 783.732 253 790 259.268 790 267 790 274.732 783.732 281 776 281 768.268 281 762 274.732 762 267Z" fill="#E4004E" fill-rule="evenodd"/><path d="M806 394.5C806 386.492 812.492 380 820.5 380 828.508 380 835 386.492 835 394.5 835 402.508 828.508 409 820.5 409 812.492 409 806 402.508 806 394.5Z" fill="#E4004E" fill-rule="evenodd"/><path d="M0.843892 0.715295 65.608 154.45 64.6864 154.838-0.0776711 1.10352ZM-1.30626 10.0321-0.000899642-0.00213552 8.09102 6.07326C8.31185 6.23906 8.35646 6.55248 8.19066 6.77331 8.02486 6.99414 7.71144 7.03875 7.49061 6.87295L0.0841435 1.31219 0.88017 0.976849-0.314616 10.1611C-0.350239 10.4349-0.601105 10.628-0.87494 10.5924-1.14877 10.5568-1.34188 10.3059-1.30626 10.0321Z" fill="#E4004E" transform="matrix(-1 -8.74228e-08 -8.74228e-08 1 810.647 405.5)"/><path d="M777.289 282.28 811.633 384.547 810.685 384.865 776.341 282.598ZM774.449 291.407 776.499 281.498 784.115 288.16C784.323 288.342 784.344 288.658 784.162 288.866 783.98 289.074 783.665 289.095 783.457 288.913L776.486 282.815 777.305 282.54 775.428 291.609C775.372 291.88 775.107 292.054 774.837 291.998 774.566 291.942 774.393 291.677 774.449 291.407Z" fill="#E4004E"/><path d="M0.985412 0.502738 98.4559 134.168 97.6479 134.757 0.177422 1.09193ZM1.02877 10.0643-0.00136534-0.00187239 9.26798 4.05629C9.52095 4.16704 9.63623 4.46188 9.52548 4.71485 9.41474 4.96781 9.11989 5.0831 8.86693 4.97235L0.382771 1.25794 1.0807 0.749013 2.02358 9.96252C2.05169 10.2372 1.85178 10.4827 1.57708 10.5108 1.30237 10.5389 1.05688 10.339 1.02877 10.0643Z" fill="#E4004E" transform="matrix(-1 -8.74228e-08 -8.74228e-08 1 919.552 246.5)"/><path d="M820.37 379.926 786.026 277.659 786.974 277.341 821.318 379.608ZM823.211 370.799 821.16 380.708 813.544 374.045C813.336 373.864 813.315 373.548 813.497 373.34 813.679 373.132 813.995 373.111 814.203 373.293L821.173 379.391 820.355 379.666 822.232 370.596C822.288 370.326 822.552 370.152 822.823 370.208 823.093 370.264 823.267 370.529 823.211 370.799Z" fill="#E4004E"/><path d="M0.843892 0.715295 65.608 154.45 64.6864 154.838-0.0776711 1.10352ZM-1.30626 10.0321-0.000899642-0.00213552 8.09102 6.07326C8.31185 6.23906 8.35646 6.55248 8.19066 6.77331 8.02486 6.99414 7.71144 7.03875 7.49061 6.87295L0.0841435 1.31219 0.88017 0.976849-0.314616 10.1611C-0.350239 10.4349-0.601105 10.628-0.87494 10.5924-1.14877 10.5568-1.34188 10.3059-1.30626 10.0321Z" fill="#E4004E" transform="matrix(1 0 0 -1 756.5 564.144)"/><path d="M0.985412 0.502738 98.4559 134.168 97.6479 134.757 0.177422 1.09193ZM1.02877 10.0643-0.00136534-0.00187239 9.26798 4.05629C9.52095 4.16704 9.63623 4.46188 9.52548 4.71485 9.41474 4.96781 9.11989 5.0831 8.86693 4.97235L0.382771 1.25794 1.0807 0.749013 2.02358 9.96252C2.05169 10.2372 1.85178 10.4827 1.57708 10.5108 1.30237 10.5389 1.05688 10.339 1.02877 10.0643Z" fill="#E4004E" transform="matrix(1 0 0 -1 831.5 384.963)"/><path d="M1.04227-0.380269 88.2395 9.92771 88.1221 10.9208 0.924878 0.612816ZM8.07908 6.08913-0.0023012-0.000272066 9.2762-4.03747C9.52941-4.14764 9.82399-4.03169 9.93417-3.77848 10.0443-3.52527 9.92839-3.23069 9.67518-3.12051L1.18264 0.574704 1.28405-0.283102 8.68087 5.29048C8.90141 5.45666 8.94548 5.77016 8.7793 5.9907 8.61312 6.21124 8.29962 6.25531 8.07908 6.08913Z" fill="#E4004E" transform="matrix(1 0 0 -1 647.5 594.924)"/><path d="M1.03809-0.391562 69.9771 7.00007 69.8705 7.99437 0.931479 0.602739ZM8.14472 6.00105-0.00230417-0.000247005 9.23182-4.13795C9.48382-4.25087 9.77964-4.13812 9.89256-3.88612 10.0055-3.63412 9.89273-3.33829 9.64073-3.22537L1.18881 0.561829 1.2809-0.297027 8.7378 5.19591C8.96014 5.35969 9.00761 5.67269 8.84383 5.89503 8.68005 6.11736 8.36705 6.16483 8.14472 6.00105Z" fill="#E4004E" transform="matrix(-1 -8.74228e-08 -8.74228e-08 1 731.424 573.5)"/><path d="M1.10925 0.0121942 49.3313 25.0298 48.8707 25.9174 0.648736 0.899846ZM5.40842 8.54974-0.00205709-0.0010672 10.1043-0.501754C10.3801-0.515418 10.6148-0.302911 10.6284-0.0271072 10.6421 0.248697 10.4296 0.483357 10.1538 0.497021L0.903517 0.955296 1.3013 0.18856 6.25346 8.01505C6.40111 8.2484 6.33164 8.55726 6.09829 8.70492 5.86493 8.85257 5.55607 8.78309 5.40842 8.54974Z" fill="#E4004E" transform="matrix(-1 -8.74228e-08 -8.74228e-08 1 992.601 210.5)"/><path d="M1.10796 0.0478943 44.7168 24.4939 44.2278 25.3662 0.618979 0.920186ZM5.12903 8.72021-0.00202141-0.00113307 10.1153-0.174647C10.3914-0.179382 10.619 0.040604 10.6238 0.316706 10.6285 0.592808 10.4085 0.820471 10.1324 0.825206L0.872143 0.984022 1.29452 0.230554 5.99092 8.21313C6.13095 8.45114 6.05152 8.7576 5.81352 8.89762 5.57551 9.03765 5.26905 8.95822 5.12903 8.72021Z" fill="#E4004E" transform="matrix(1 0 0 -1 939.5 226.43)"/><path d="M759.341 211.223 776.608 252.797 775.684 253.181 758.418 211.606ZM757.143 220.525 758.499 210.498 766.56 216.614C766.78 216.781 766.823 217.095 766.656 217.315 766.489 217.535 766.176 217.578 765.956 217.411L758.578 211.813 759.375 211.481 758.134 220.659C758.097 220.933 757.845 221.125 757.571 221.088 757.298 221.051 757.106 220.799 757.143 220.525Z" fill="#E4004E"/><path d="M765.808 257.116 751.039 221.692 751.961 221.308 766.731 256.731ZM767.994 247.81 766.651 257.839 758.582 251.734C758.362 251.568 758.318 251.254 758.485 251.034 758.651 250.814 758.965 250.77 759.185 250.937L766.571 256.525 765.774 256.857 767.003 247.677C767.039 247.404 767.291 247.211 767.565 247.248 767.838 247.285 768.03 247.536 767.994 247.81Z" fill="#E4004E"/><text fill="#221714" font-family="Arial,Arial_MSFontService,sans-serif" font-weight="400" font-size="19" transform="translate(268.994 648)">Existent rail network<tspan x="409.946" y="0">TraISARE</tspan><tspan x="498.42" y="0">rail network</tspan></text></g></svg>