<svg width="916" height="483" xmlns="http://www.w3.org/2000/svg" xmlns:xlink="http://www.w3.org/1999/xlink" overflow="hidden"><defs><clipPath id="clip0"><rect x="210" y="160" width="916" height="483"/></clipPath></defs><g clip-path="url(#clip0)" transform="translate(-210 -160)"><path d="M230.5 465.5 230.5 610.333" stroke="#E4004E" stroke-width="1.33333" stroke-miterlimit="8" stroke-dasharray="10.6667 4" fill="none" fill-rule="evenodd"/><path d="M818 376C818 368.268 824.492 362 832.5 362 840.508 362 847 368.268 847 376 847 383.732 840.508 390 832.5 390 824.492 390 818 383.732 818 376Z" fill="#E4004E" fill-rule="evenodd"/><path d="M429 376C429 368.268 435.492 362 443.5 362 451.508 362 458 368.268 458 376 458 383.732 451.508 390 443.5 390 435.492 390 429 383.732 429 376Z" fill="#E4004E" fill-rule="evenodd"/><path d="M458.5 376.5 818.914 376.5" stroke="#E4004E" stroke-width="5.33333" stroke-miterlimit="8" fill="none" fill-rule="evenodd"/><path d="M216 451C216 443.268 222.268 437 230 437 237.732 437 244 443.268 244 451 244 458.732 237.732 465 230 465 222.268 465 216 458.732 216 451Z" fill="#E4004E" fill-rule="evenodd"/><path d="M0 0 193.359 54.8692" stroke="#E4004E" stroke-width="5.33333" stroke-miterlimit="8" fill="none" fill-rule="evenodd" transform="matrix(1 0 0 -1 240.5 441.369)"/><path d="M216 287.5C216 279.492 222.268 273 230 273 237.732 273 244 279.492 244 287.5 244 295.508 237.732 302 230 302 222.268 302 216 295.508 216 287.5Z" fill="#E4004E" fill-rule="evenodd"/><path d="M244.5 288.5 433.688 366.679" stroke="#E4004E" stroke-width="5.33333" stroke-miterlimit="8" fill="none" fill-rule="evenodd"/><path d="M429 301.5C429 293.492 435.492 287 443.5 287 451.508 287 458 293.492 458 301.5 458 309.508 451.508 316 443.5 316 435.492 316 429 309.508 429 301.5Z" stroke="#E4004E" stroke-width="8" stroke-miterlimit="8" fill="none" fill-rule="evenodd"/><path d="M216 582.5C216 574.492 222.268 568 230 568 237.732 568 244 574.492 244 582.5 244 590.508 237.732 597 230 597 222.268 597 216 590.508 216 582.5Z" stroke="#E4004E" stroke-width="8" stroke-miterlimit="8" fill="#FFFFFF" fill-rule="evenodd"/><path d="M215 207C215 199.268 221.268 193 229 193 236.732 193 243 199.268 243 207 243 214.732 236.732 221 229 221 221.268 221 215 214.732 215 207Z" stroke="#E4004E" stroke-width="8" stroke-miterlimit="8" fill="none" fill-rule="evenodd"/><path d="M428.254 302.024 239.23 218.109 239.771 216.891 428.795 300.806ZM420.796 290.052 429.781 301.973 414.913 303.304C414.546 303.337 414.222 303.066 414.189 302.699 414.156 302.333 414.427 302.009 414.794 301.976L428.467 300.752 427.994 301.817 419.731 290.855C419.509 290.561 419.568 290.143 419.862 289.921 420.156 289.699 420.574 289.758 420.796 290.052Z" fill="#E4004E"/><path d="M1.37255-0.666666 358.851-0.666562 358.851 0.666772 1.37255 0.666667ZM13.0496 7.24944 0.000582554 3.9878e-09 13.0496-7.24943C13.3714-7.42824 13.7773-7.31228 13.9561-6.99042 14.1349-6.66857 14.019-6.2627 13.6971-6.08389L1.6971 0.582772 1.6971-0.582771 13.6971 6.0839C14.0189 6.26271 14.1349 6.66858 13.9561 6.99043 13.7773 7.31229 13.3714 7.42825 13.0496 7.24944Z" fill="#E4004E" transform="matrix(-1 0 0 1 812.351 298.5)"/><path d="M818 301.5C818 293.492 824.492 287 832.5 287 840.508 287 847 293.492 847 301.5 847 309.508 840.508 316 832.5 316 824.492 316 818 309.508 818 301.5Z" stroke="#E4004E" stroke-width="8" stroke-miterlimit="8" fill="none" fill-rule="evenodd"/><path d="M1.52365-0.0830166 189.446 78.8648 188.929 80.0941 1.00722 1.14624ZM9.22321 11.7379 0.000537238 0.000225712 14.8388-1.62932C15.2048-1.66951 15.5341-1.4054 15.5743-1.03941 15.6145-0.67342 15.3504-0.344144 14.9844-0.303951L1.33892 1.19459 1.79035 0.120025 10.2716 10.9141C10.4991 11.2036 10.4488 11.6227 10.1593 11.8502 9.86979 12.0777 9.45069 12.0274 9.22321 11.7379Z" fill="#E4004E" transform="matrix(1 0 0 -1 244.5 582.98)"/><path d="M1.52365-0.0830166 189.446 78.8648 188.929 80.0941 1.00722 1.14624ZM9.22321 11.7379 0.000537238 0.000225712 14.8388-1.62932C15.2048-1.66951 15.5341-1.4054 15.5743-1.03941 15.6145-0.67342 15.3504-0.344144 14.9844-0.303951L1.33892 1.19459 1.79035 0.120025 10.2716 10.9141C10.4991 11.2036 10.4488 11.6227 10.1593 11.8502 9.86979 12.0777 9.45069 12.0274 9.22321 11.7379Z" fill="#E4004E" transform="matrix(-1 0 0 1 429.688 493.5)"/><path d="M1.37255-0.666666 360.414-0.666562 360.414 0.666772 1.37255 0.666667ZM13.0496 7.24944 0.000582554 4.90353e-08 13.0496-7.24943C13.3714-7.42824 13.7773-7.31228 13.9561-6.99042 14.1349-6.66857 14.019-6.2627 13.6971-6.08389L1.6971 0.582772 1.6971-0.582771 13.6971 6.0839C14.0189 6.26271 14.1349 6.66858 13.9561 6.99043 13.7773 7.31229 13.3714 7.42825 13.0496 7.24944Z" fill="#E4004E" transform="matrix(-1 0 0 1 818.914 483.5)"/><path d="M229.5 221.5 230.594 273.926" stroke="#E4004E" stroke-width="1.33333" stroke-miterlimit="8" stroke-dasharray="10.6667 4" fill="none" fill-rule="evenodd"/><path d="M443.5 316.5 443.5 362.632" stroke="#E4004E" stroke-width="1.33333" stroke-miterlimit="8" stroke-dasharray="10.6667 4" fill="none" fill-rule="evenodd"/><path d="M443.5 390.5 443.5 521.236" stroke="#E4004E" stroke-width="1.33333" stroke-miterlimit="8" stroke-dasharray="10.6667 4" fill="none" fill-rule="evenodd"/><path d="M832.5 390.5 832.5 478.91" stroke="#E4004E" stroke-width="1.33333" stroke-miterlimit="8" stroke-dasharray="10.6667 4" fill="none" fill-rule="evenodd"/><path d="M832.5 316.5 832.5 362.632" stroke="#E4004E" stroke-width="1.33333" stroke-miterlimit="8" stroke-dasharray="10.6667 4" fill="none" fill-rule="evenodd"/><path d="M321.728 239.882C324.278 234.272 330.894 231.792 336.503 234.343 342.113 236.893 344.593 243.508 342.043 249.118 339.492 254.728 332.877 257.208 327.267 254.657 321.658 252.107 319.178 245.492 321.728 239.882Z" fill="#221714" fill-rule="evenodd"/><path d="M366.12 260.064C368.67 254.454 375.285 251.974 380.895 254.524 386.505 257.075 388.985 263.69 386.434 269.3 383.884 274.91 377.269 277.39 371.659 274.839 366.049 272.289 363.569 265.674 366.12 260.064Z" fill="#221714" fill-rule="evenodd"/><path d="M349.245 164.955 369.859 160.974 380.411 179.124 359.797 183.105Z" stroke="#70AD47" stroke-width="1.33333" stroke-miterlimit="8" fill="none" fill-rule="evenodd"/><path d="M419.542 205.575 414.632 271.182 311.385 224.242 336.944 168.023Z" fill="#70AD47" fill-rule="evenodd"/><path d="M611 473C611 466.925 616.149 462 622.5 462 628.851 462 634 466.925 634 473 634 479.075 628.851 484 622.5 484 616.149 484 611 479.075 611 473Z" fill="#221714" fill-rule="evenodd"/><path d="M660 473C660 466.925 664.925 462 671 462 677.075 462 682 466.925 682 473 682 479.075 677.075 484 671 484 664.925 484 660 479.075 660 473Z" fill="#221714" fill-rule="evenodd"/><path d="M605.5 394 623 381.5 640.5 394 623 406.5Z" stroke="#46A2DA" stroke-width="1.33333" stroke-miterlimit="8" fill="none" fill-rule="evenodd"/><path d="M686.2 402 709 463 595 463 595 402Z" fill="#46A2DA" fill-rule="evenodd"/><path d="M378.263 537.471C380.754 543.107 378.203 549.696 372.566 552.186 366.929 554.676 360.341 552.125 357.851 546.488 355.361 540.851 357.912 534.263 363.548 531.773 369.185 529.283 375.773 531.834 378.263 537.471Z" fill="#221714" fill-rule="evenodd"/><path d="M333.658 557.176C336.148 562.812 333.597 569.401 327.961 571.891 322.324 574.381 315.736 571.83 313.246 566.193 310.755 560.556 313.306 553.968 318.943 551.478 324.58 548.988 331.168 551.539 333.658 557.176Z" fill="#221714" fill-rule="evenodd"/><path d="M415.88 607.871 405.134 625.907 384.564 621.705 395.31 603.669Z" stroke="#46A2DA" stroke-width="1.33333" stroke-miterlimit="8" fill="none" fill-rule="evenodd"/><path d="M338.78 633.312 293.076 585.988 396.821 540.158 421.776 596.648Z" fill="#46A2DA" fill-rule="evenodd"/><text fill="#221714" font-family="Arial,Arial_MSFontService,sans-serif" font-weight="400" font-size="19" transform="matrix(0.907332 0.420414 -0.420414 0.907332 329.287 194)">GreenLine</text><text fill="#221714" font-family="Arial,Arial_MSFontService,sans-serif" font-weight="400" font-size="19" transform="translate(604.512 424)">BlueLine</text><text fill="#221714" font-family="Arial,Arial_MSFontService,sans-serif" font-weight="400" font-size="19" transform="matrix(-0.914884 0.403717 -0.403717 -0.914884 400.366 580)">BlueLine</text><text fill="#221714" font-family="Arial,Arial_MSFontService,sans-serif" font-weight="400" font-size="19" transform="matrix(0.913307 0.407272 -0.407272 0.913307 329.533 220)">Inboud</text><text fill="#221714" font-family="Arial,Arial_MSFontService,sans-serif" font-weight="400" font-size="19" transform="translate(612.207 449)">Inboud</text><text fill="#221714" font-family="Arial,Arial_MSFontService,sans-serif" font-weight="400" font-size="19" transform="matrix(-0.908225 0.418482 -0.418482 -0.908225 389.756 563)">Outboud</text><path d="M459.873 497.833 818.914 497.833 818.914 499.167 459.873 499.167ZM471.55 505.75 458.501 498.5 471.55 491.251C471.871 491.072 472.277 491.188 472.456 491.51 472.635 491.831 472.519 492.237 472.197 492.416L460.197 499.083 460.197 497.917 472.197 504.584C472.519 504.763 472.635 505.169 472.456 505.49 472.277 505.812 471.871 505.928 471.55 505.75Z" fill="#E4004E"/><path d="M429 493C429 485.268 435.492 479 443.5 479 451.508 479 458 485.268 458 493 458 500.732 451.508 507 443.5 507 435.492 507 429 500.732 429 493Z" stroke="#E4004E" stroke-width="8" stroke-miterlimit="8" fill="#FFFFFF" fill-rule="evenodd"/><path d="M818 493C818 485.268 824.492 479 832.5 479 840.508 479 847 485.268 847 493 847 500.732 840.508 507 832.5 507 824.492 507 818 500.732 818 493Z" stroke="#E4004E" stroke-width="8" stroke-miterlimit="8" fill="#FFFFFF" fill-rule="evenodd"/><path d="M460.5 298.361C501.446 298.361 534.639 343.419 534.639 399 534.639 439.046 517.149 475.28 490.101 491.269L490.101 502.689 460.5 494.091 490.101 466.871 490.101 478.058C520.842 454.838 532.51 400.618 516.161 356.956 505.217 327.725 483.809 309.457 460.5 309.457Z" fill="#3154A3" fill-rule="evenodd"/><text fill="#221714" font-family="Arial,Arial_MSFontService,sans-serif" font-weight="400" font-size="19" transform="translate(532.862 357)">Transfer<tspan x="398.105" y="-105">Station</tspan><tspan x="398.105" y="-69">Railway(Integrated)</tspan></text><path d="M895 244.5C895 238.701 899.701 234 905.5 234 911.299 234 916 238.701 916 244.5 916 250.299 911.299 255 905.5 255 899.701 255 895 250.299 895 244.5Z" fill="#E4004E" fill-rule="evenodd"/><path d="M0 0 36.6564 0.000314961" stroke="#E4004E" stroke-width="5.33333" stroke-miterlimit="8" fill="none" fill-rule="evenodd" transform="matrix(1 0 0 -1 887.5 281.5)"/><rect x="876.5" y="192.5" width="241" height="287" stroke="#E4004E" stroke-width="1.33333" stroke-miterlimit="8" fill="none"/><path d="M895 317.5C895 311.701 899.701 307 905.5 307 911.299 307 916 311.701 916 317.5 916 323.299 911.299 328 905.5 328 899.701 328 895 323.299 895 317.5Z" stroke="#E4004E" stroke-width="8" stroke-miterlimit="8" fill="none" fill-rule="evenodd"/><text fill="#221714" font-family="Arial,Arial_MSFontService,sans-serif" font-weight="400" font-size="19" transform="translate(930.967 325)">Platform</text><path d="M1.32001-0.666655 36.6564-0.666352 36.6564 0.666982 1.32 0.666678ZM8.98404 5.2426-0.00308994 2.06888e-08 8.98413-5.24244C9.30217-5.42796 9.71038-5.32053 9.8959-5.0025 10.0814-4.68446 9.97398-4.27625 9.65595-4.09073L1.65591 0.575867 1.65592-0.575838 9.65588 4.0909C9.97391 4.27642 10.0813 4.68463 9.89581 5.00267 9.71029 5.3207 9.30207 5.42812 8.98404 5.2426Z" fill="#E4004E" transform="matrix(1 0 0 -1 887.5 352.5)"/><text fill="#221714" font-family="Arial,Arial_MSFontService,sans-serif" font-weight="400" font-size="19" transform="translate(930.967 358)">Railroad</text><path d="M0 0 36.6564 0.000314961" stroke="#E4004E" stroke-width="1.33333" stroke-miterlimit="8" stroke-dasharray="10.6667 4" fill="none" fill-rule="evenodd" transform="matrix(1 0 0 -1 887.5 393.5)"/><text fill="#221714" font-family="Arial,Arial_MSFontService,sans-serif" font-weight="400" font-size="19" transform="translate(930.967 389)">Relationship between <tspan x="0" y="23">station and platform</tspan></text><path d="M893 462.5C893 460.015 895.015 458 897.5 458 899.985 458 902 460.015 902 462.5 902 464.985 899.985 467 897.5 467 895.015 467 893 464.985 893 462.5Z" fill="#221714" fill-rule="evenodd"/><path d="M912 462.5C912 460.015 913.791 458 916 458 918.209 458 920 460.015 920 462.5 920 464.985 918.209 467 916 467 913.791 467 912 464.985 912 462.5Z" fill="#221714" fill-rule="evenodd"/><path d="M891.5 431 898 426.5 904.5 431 898 435.5Z" stroke="#221714" stroke-width="1.33333" stroke-miterlimit="8" fill="none" fill-rule="evenodd"/><path d="M921.9 435.5 930.5 459.5 887.5 459.5 887.5 435.5Z" stroke="#221714" stroke-width="1.33333" stroke-miterlimit="8" fill="none" fill-rule="evenodd"/><text fill="#221714" font-family="Arial,Arial_MSFontService,sans-serif" font-weight="400" font-size="19" transform="translate(930.967 453)">Train<tspan x="-39.3381" y="-235">Legend</tspan></text></g></svg>